<svg width="3389" height="3016" viewBox="0 0 3389 3016" fill="none" xmlns="http://www.w3.org/2000/svg">
<path d="M1694.5 1807.7C1861.62 1807.7 1997.1 1672.22 1997.1 1505.1C1997.1 1337.98 1861.62 1202.5 1694.5 1202.5C1527.38 1202.5 1391.9 1337.98 1391.9 1505.1C1391.9 1672.22 1527.38 1807.7 1694.5 1807.7Z" fill="#00D8FF"/>
<path d="M1694.5 889.9C2100.7 889.9 2478.1 948.2 2762.6 1046.1C3105.4 1164.1 3316.2 1343 3316.2 1505C3316.2 1673.8 3092.8 1863.9 2724.7 1985.8C2446.4 2078 2080.1 2126.2 1694.5 2126.2C1299.1 2126.2 924.8 2081 643.3 1984.8C287.2 1863.1 72.7 1670.6 72.7 1505C72.7 1344.3 274 1166.8 612 1049C897.6 949.5 1284.3 889.9 1694.5 889.9V889.9Z" stroke="#00D8FF" stroke-width="144.746" stroke-miterlimit="10"/>
<path d="M1159 1199.3C1361.9 847.4 1601 549.6 1828 352.1C2101.5 114.1 2361.8 20.9 2502.1 101.8C2648.3 186.1 2701.4 474.6 2623.1 854.5C2563.9 1141.7 2422.7 1483 2230 1817.1C2032.5 2159.6 1806.3 2461.3 1582.4 2657.1C1299.1 2904.8 1025.1 2994.4 881.7 2911.7C742.5 2831.4 689.3 2568.4 756 2216.7C812.4 1919.3 954 1554.6 1159 1199.3V1199.3Z" stroke="#00D8FF" stroke-width="144.746" stroke-miterlimit="10"/>
<path d="M1159.5 1817.8C956 1466.2 817.4 1110.4 759.6 815.1C690 459.3 739.2 187.2 879.4 106.1C1025.5 21.5 1301.9 119.6 1591.9 377.1C1811.2 571.8 2036.3 864.6 2229.5 1198.4C2427.6 1540.6 2576.1 1887.2 2633.8 2178.9C2706.9 2548.1 2647.7 2830.2 2504.4 2913.1C2365.3 2993.6 2110.9 2908.4 1839.5 2674.9C1610.3 2477.6 1365 2172.8 1159.5 1817.8V1817.8Z" stroke="#00D8FF" stroke-width="144.746" stroke-miterlimit="10"/>
</svg>
