<svg width="300" height="165" viewBox="0 0 300 165" fill="none" xmlns="http://www.w3.org/2000/svg">
<path d="M223.019 106.877C217.364 108.722 211.284 109.289 205.378 110.324C203.77 110.605 202.073 110.354 200.451 110.579C187.851 112.328 183.09 117.374 181.311 130.79C180.364 137.932 178.484 144.72 174.386 150.796C167.461 161.059 154.008 165.717 142.495 161.707C130.171 157.415 122.705 146.182 123.701 133.428C124.598 121.937 133.674 111.785 146.42 108.835C152.389 107.453 158.582 106.913 164.705 106.355C176.135 105.316 181.184 100.305 183.088 89.0655C184.184 82.5988 183.208 76.4977 181.773 70.3977C179.582 61.0744 172.795 56.7426 161.397 55.913C155.178 55.4595 148.851 54.5573 142.899 52.7693C130.371 49.0022 123.077 38.1264 123.655 25.3676C124.161 14.1953 133.26 3.31708 144.188 0.818985C157.136 -2.14194 170.025 3.03587 175.532 14.5667C178.421 20.6174 180.008 27.472 181.139 34.1402C183.165 46.0964 187.916 50.7352 199.84 52.0311C207.553 52.87 215.412 53.8262 222.767 56.1274C233.936 59.6226 240.645 70.031 240.643 81.5981C240.641 92.9134 233.717 103.386 223.019 106.877V106.877Z" fill="#D0021B"/>
<path d="M91.4987 108.714C76.5265 108.716 64.3032 96.4966 64.3008 81.5268C64.2985 66.5558 76.5183 54.3313 91.4881 54.3289C106.459 54.3266 118.682 66.5464 118.685 81.5162C118.687 96.4872 106.467 108.712 91.4987 108.714ZM27.1223 163.103C12.1631 163.065 -0.0169007 150.803 0.0205941 135.819C0.058089 120.86 12.3189 108.68 27.3028 108.719C42.2621 108.755 54.442 121.017 54.4045 136.001C54.3671 150.96 42.1062 163.14 27.1223 163.103V163.103ZM272.986 163.103C257.988 163.188 245.674 151.058 245.589 136.115C245.503 121.118 257.634 108.803 272.577 108.719C287.575 108.632 299.887 120.762 299.974 135.706C300.059 150.702 287.928 163.017 272.986 163.103Z" fill="black"/>
</svg>
