<svg width="79" height="75" viewBox="0 0 79 75" fill="none" xmlns="http://www.w3.org/2000/svg">
<path d="M54.6 52.4C57.5 52.1 59.7 49.6 59.6 46.6C59.5 43.6 57 41.2 54 41.2H53.8C50.7 41.3 48.3 43.9 48.4 47C48.5 48.5 49.1 49.8 50 50.7C46.6 57.4 41.4 62.3 33.6 66.4C28.3 69.2 22.8 70.2 17.3 69.5C12.8 68.9 9.30002 66.9 7.10002 63.6C3.90002 58.7 3.60001 53.4 6.30001 48.1C8.20001 44.3 11.2 41.5 13.1 40.1C12.7 38.8 12.1 36.6 11.8 35C-2.69999 45.5 -1.19999 59.7 3.20001 66.4C6.50001 71.4 13.2 74.5 20.6 74.5C22.6 74.5 24.6 74.3 26.6 73.8C39.4 71.3 49.1 63.7 54.6 52.4V52.4Z" fill="#764ABC"/>
<path d="M72.2 40C64.6 31.1 53.4 26.2 40.6 26.2H39C38.1 24.4 36.2 23.2 34.1 23.2H33.9C30.8 23.3 28.4 25.9 28.5 29C28.6 32 31.1 34.4 34.1 34.4H34.3C36.5 34.3 38.4 32.9 39.2 31H41C48.6 31 55.8 33.2 62.3 37.5C67.3 40.8 70.9 45.1 72.9 50.3C74.6 54.5 74.5 58.6 72.7 62.1C69.9 67.4 65.2 70.3 59 70.3C55 70.3 51.2 69.1 49.2 68.2C48.1 69.2 46.1 70.8 44.7 71.8C49 73.8 53.4 74.9 57.6 74.9C67.2 74.9 74.3 69.6 77 64.3C79.9 58.5 79.7 48.5 72.2 40Z" fill="#764ABC"/>
<path d="M21.4 54.1C21.5 57.1 24 59.5 27 59.5H27.2C30.3 59.4 32.7 56.8 32.6 53.7C32.5 50.7 30 48.3 27 48.3H26.8C26.6 48.3 26.3 48.3 26.1 48.4C22 41.6 20.3 34.2 20.9 26.2C21.3 20.2 23.3 15 26.8 10.7C29.7 6.99999 35.3 5.19999 39.1 5.09999C49.7 4.89999 54.2 18.1 54.5 23.4C55.8 23.7 58 24.4 59.5 24.9C58.3 8.69999 48.3 0.299988 38.7 0.299988C29.7 0.299988 21.4 6.79999 18.1 16.4C13.5 29.2 16.5 41.5 22.1 51.2C21.6 51.9 21.3 53 21.4 54.1V54.1Z" fill="#764ABC"/>
</svg>
