<svg width="480" height="480" viewBox="0 0 480 480" fill="none" xmlns="http://www.w3.org/2000/svg">
<path d="M48 136H112C116.418 136 120 132.418 120 128V104H104V120H56V72H80V56H48C43.582 56 40 59.582 40 64V128C40 132.418 43.582 136 48 136Z" fill="black"/>
<path d="M80 92.6875L69.6562 82.3438L58.3438 93.6562L74.3438 109.656C75.9062 111.219 77.9531 112 80 112C82.0469 112 84.0938 111.219 85.6562 109.656L133.656 61.6562L122.344 50.3438L80 92.6875Z" fill="black"/>
<path d="M104 224H56V176H80V160H48C43.582 160 40 163.582 40 168V232C40 236.418 43.582 240 48 240H112C116.418 240 120 236.418 120 232V208H104V224Z" fill="black"/>
<path d="M80 196.688L69.6562 186.344L58.3438 197.656L74.3438 213.656C75.9062 215.219 77.9531 216 80 216C82.0469 216 84.0938 215.219 85.6562 213.656L133.656 165.656L122.344 154.344L80 196.688Z" fill="black"/>
<path d="M112 264H48C43.582 264 40 267.582 40 272V336C40 340.418 43.582 344 48 344H112C116.418 344 120 340.418 120 336V272C120 267.582 116.418 264 112 264ZM104 328H56V280H104V328Z" fill="black"/>
<path d="M112 368H48C43.582 368 40 371.582 40 376V440C40 444.418 43.582 448 48 448H112C116.418 448 120 444.418 120 440V376C120 371.582 116.418 368 112 368ZM104 432H56V384H104V432Z" fill="black"/>
<path d="M445.656 26.3438C442.531 23.2188 437.469 23.2188 434.344 26.3438L384 76.6875L309.656 2.34376C308.156 0.84376 306.121 0 304 0H8C3.582 0 0 3.582 0 8V472C0 476.418 3.582 480 8 480H384C388.418 480 392 476.418 392 472V155.312L477.656 69.6562C480.781 66.5313 480.781 61.4687 477.656 58.3438L445.656 26.3438ZM376 464H16V16H300.688L364.688 80H312V40H296V88C296 92.418 299.582 96 304 96H364.688L178.344 282.344C177.465 283.223 176.805 284.293 176.41 285.469L160.41 333.469C159.453 336.344 160.199 339.516 162.344 341.656C163.867 343.184 165.914 344 168 344C168.848 344 169.699 343.867 170.531 343.59L218.531 327.59C219.707 327.195 220.777 326.535 221.656 325.656L376 171.312V464ZM187.496 302.809L201.191 316.504L180.648 323.352L187.496 302.809ZM216 308.688L195.312 288L440 43.3125L460.688 64L216 308.688Z" fill="black"/>
<path d="M344 432H360V448H344V432Z" fill="black"/>
<path d="M312 432H328V448H312V432Z" fill="black"/>
<path d="M280 432H296V448H280V432Z" fill="black"/>
</svg>
